<?xml version="1.0" encoding="UTF-8" standalone="no"?>
<!-- Created with Inkscape (http://www.inkscape.org/) -->

<svg
   width="26.005325mm"
   height="26.005325mm"
   viewBox="0 0 26.005326 26.005325"
   version="1.1"
   id="svg5"
   sodipodi:docname="logo.svg"
   inkscape:version="1.1 (c68e22c387, 2021-05-23)"
   xmlns:inkscape="http://www.inkscape.org/namespaces/inkscape"
   xmlns:sodipodi="http://sodipodi.sourceforge.net/DTD/sodipodi-0.dtd"
   xmlns="http://www.w3.org/2000/svg"
   xmlns:svg="http://www.w3.org/2000/svg">
  <sodipodi:namedview
     id="namedview7"
     pagecolor="#ffffff"
     bordercolor="#666666"
     borderopacity="1.0"
     inkscape:pageshadow="2"
     inkscape:pageopacity="0.0"
     inkscape:pagecheckerboard="0"
     inkscape:document-units="mm"
     showgrid="false"
     showguides="true"
     inkscape:guide-bbox="true"
     inkscape:snap-bbox="false"
     inkscape:snap-bbox-midpoints="true"
     inkscape:snap-object-midpoints="true"
     inkscape:snap-bbox-edge-midpoints="true"
     inkscape:bbox-nodes="true"
     inkscape:bbox-paths="true"
     inkscape:zoom="1"
     inkscape:cx="-72.499998"
     inkscape:cy="-78.499998"
     inkscape:window-width="1366"
     inkscape:window-height="745"
     inkscape:window-x="-8"
     inkscape:window-y="-8"
     inkscape:window-maximized="1"
     inkscape:current-layer="layer1"
     inkscape:snap-nodes="false"
     inkscape:snap-others="false"
     fit-margin-top="0"
     fit-margin-left="0"
     fit-margin-right="0"
     fit-margin-bottom="0" />
  <defs
     id="defs2">
    <linearGradient
       id="linearGradient57457"
       inkscape:swatch="solid">
      <stop
         style="stop-color:#000000;stop-opacity:1;"
         offset="0"
         id="stop57455" />
    </linearGradient>
  </defs>
  <g
     inkscape:label="Layer 1"
     inkscape:groupmode="layer"
     id="layer1"
     transform="translate(-40.248394,-34.593033)">
    <g
       id="g69095"
       transform="matrix(1.9567264,0,0,1.9567264,-51.196444,-44.383675)"
       style="fill:#3f3f3f;fill-opacity:1">
      <g
         id="g69081"
         transform="matrix(0.51688545,-0.2342166,0.2342166,0.51688545,18.835761,35.456055)"
         style="fill:#3f3f3f;fill-opacity:1">
        <path
           id="path69077"
           style="fill:#3f3f3f;fill-opacity:1;stroke-width:0.520455;stroke-linejoin:round;stroke-dasharray:1.56137, 0.520455"
           d="m 52.441241,47.750674 -0.02542,-0.0027 c -0.215242,-0.02308 3.566328,-1.572224 3.566328,-1.355748 v 3.229177 c 0,0.216476 -0.174275,0.390752 -0.390752,0.390752 h -6.346172 c -0.216477,0 -0.390752,-0.174276 -0.390752,-0.390752 v -3.229177 c 0,-0.216476 3.802005,1.38155 3.586761,1.358473 z"
           sodipodi:nodetypes="sssssssss" />
        <path
           id="path69079"
           style="fill:#3f3f3f;fill-opacity:1;stroke-width:0.534756;stroke-linejoin:round;stroke-dasharray:1.60426, 0.534756"
           d="m 49.102239,45.129793 h 6.632155 c 0.131221,0 0.236862,0.236863 0.236862,0.236863 l -9.3e-4,0.558536 c 0,0.131222 -3.551975,1.295797 -3.551975,1.295797 -0.131222,0 -3.552941,-1.164573 -3.552941,-1.295797 v -0.558537 c 0,-0.131222 0.105641,-0.236864 0.236862,-0.236864 z"
           sodipodi:nodetypes="ssscccsss" />
      </g>
      <g
         id="g69087"
         style="fill:#3f3f3f;fill-opacity:1">
        <path
           id="path69083"
           style="fill:#3f3f3f;fill-opacity:1;stroke-width:0.520455;stroke-linejoin:round;stroke-dasharray:1.56137, 0.520455"
           d="m 52.441241,47.750674 -0.02542,-0.0027 c -0.215242,-0.02308 3.566328,-1.572224 3.566328,-1.355748 v 3.229177 c 0,0.216476 -0.174275,0.390752 -0.390752,0.390752 h -6.346172 c -0.216477,0 -0.390752,-0.174276 -0.390752,-0.390752 v -3.229177 c 0,-0.216476 3.802005,1.38155 3.586761,1.358473 z"
           sodipodi:nodetypes="sssssssss" />
        <path
           id="path69085"
           style="fill:#3f3f3f;fill-opacity:1;stroke-width:0.534756;stroke-linejoin:round;stroke-dasharray:1.60426, 0.534756"
           d="m 49.102239,45.129793 h 6.632155 c 0.131221,0 0.236862,0.236863 0.236862,0.236863 l -9.3e-4,0.558536 c 0,0.131222 -3.551975,1.295797 -3.551975,1.295797 -0.131222,0 -3.552941,-1.164573 -3.552941,-1.295797 v -0.558537 c 0,-0.131222 0.105641,-0.236864 0.236862,-0.236864 z"
           sodipodi:nodetypes="ssscccsss" />
      </g>
      <g
         id="g69093"
         transform="matrix(0.2292057,0.0225678,-0.0225678,0.2292057,45.867914,32.622992)"
         style="fill:#3f3f3f;fill-opacity:1">
        <path
           id="path69089"
           style="fill:#3f3f3f;fill-opacity:1;stroke-width:0.520455;stroke-linejoin:round;stroke-dasharray:1.56137, 0.520455"
           d="m 52.441241,47.750674 -0.02542,-0.0027 c -0.215242,-0.02308 3.566328,-1.572224 3.566328,-1.355748 v 3.229177 c 0,0.216476 -0.174275,0.390752 -0.390752,0.390752 h -6.346172 c -0.216477,0 -0.390752,-0.174276 -0.390752,-0.390752 v -3.229177 c 0,-0.216476 3.802005,1.38155 3.586761,1.358473 z"
           sodipodi:nodetypes="sssssssss" />
        <path
           id="path69091"
           style="fill:#3f3f3f;fill-opacity:1;stroke-width:0.534756;stroke-linejoin:round;stroke-dasharray:1.60426, 0.534756"
           d="m 49.102239,45.129793 h 6.632155 c 0.131221,0 0.236862,0.236863 0.236862,0.236863 l -9.3e-4,0.558536 c 0,0.131222 -3.551975,1.295797 -3.551975,1.295797 -0.131222,0 -3.552941,-1.164573 -3.552941,-1.295797 v -0.558537 c 0,-0.131222 0.105641,-0.236864 0.236862,-0.236864 z"
           sodipodi:nodetypes="ssscccsss" />
      </g>
    </g>
    <g
       id="g90984"
       inkscape:export-filename="C:\Users\Vrizas\Downloads\icon.png"
       inkscape:export-xdpi="96"
       inkscape:export-ydpi="96">
      <circle
         style="fill:#4c4c4c;fill-opacity:1;stroke:none;stroke-width:0.72826;stroke-linejoin:round;stroke-dasharray:2.18478, 0.72826"
         id="path57453"
         cx="53.251057"
         cy="47.595695"
         r="13.002663" />
      <g
         id="g57415"
         transform="matrix(1.9567264,0,0,1.9567264,-51.791756,-45.007763)"
         style="fill:#fff500;fill-opacity:1">
        <g
           id="g57220"
           transform="matrix(0.51688545,-0.2342166,0.2342166,0.51688545,18.835761,35.456055)"
           style="fill:#fff500;fill-opacity:1">
          <path
             id="path57216"
             style="fill:#fff500;fill-opacity:1;stroke-width:0.520455;stroke-linejoin:round;stroke-dasharray:1.56137, 0.520455"
             d="m 52.441241,47.750674 -0.02542,-0.0027 c -0.215242,-0.02308 3.566328,-1.572224 3.566328,-1.355748 v 3.229177 c 0,0.216476 -0.174275,0.390752 -0.390752,0.390752 h -6.346172 c -0.216477,0 -0.390752,-0.174276 -0.390752,-0.390752 v -3.229177 c 0,-0.216476 3.802005,1.38155 3.586761,1.358473 z"
             sodipodi:nodetypes="sssssssss" />
          <path
             id="path57218"
             style="fill:#fff500;fill-opacity:1;stroke-width:0.534756;stroke-linejoin:round;stroke-dasharray:1.60426, 0.534756"
             d="m 49.102239,45.129793 h 6.632155 c 0.131221,0 0.236862,0.236863 0.236862,0.236863 l -9.3e-4,0.558536 c 0,0.131222 -3.551975,1.295797 -3.551975,1.295797 -0.131222,0 -3.552941,-1.164573 -3.552941,-1.295797 v -0.558537 c 0,-0.131222 0.105641,-0.236864 0.236862,-0.236864 z"
             sodipodi:nodetypes="ssscccsss" />
        </g>
        <g
           id="g57214"
           style="fill:#fff500;fill-opacity:1">
          <path
             id="rect3912"
             style="fill:#fff500;fill-opacity:1;stroke-width:0.520455;stroke-linejoin:round;stroke-dasharray:1.56137, 0.520455"
             d="m 52.441241,47.750674 -0.02542,-0.0027 c -0.215242,-0.02308 3.566328,-1.572224 3.566328,-1.355748 v 3.229177 c 0,0.216476 -0.174275,0.390752 -0.390752,0.390752 h -6.346172 c -0.216477,0 -0.390752,-0.174276 -0.390752,-0.390752 v -3.229177 c 0,-0.216476 3.802005,1.38155 3.586761,1.358473 z"
             sodipodi:nodetypes="sssssssss" />
          <path
             id="rect5277"
             style="fill:#fff500;fill-opacity:1;stroke-width:0.534756;stroke-linejoin:round;stroke-dasharray:1.60426, 0.534756"
             d="m 49.102239,45.129793 h 6.632155 c 0.131221,0 0.236862,0.236863 0.236862,0.236863 l -9.3e-4,0.558536 c 0,0.131222 -3.551975,1.295797 -3.551975,1.295797 -0.131222,0 -3.552941,-1.164573 -3.552941,-1.295797 v -0.558537 c 0,-0.131222 0.105641,-0.236864 0.236862,-0.236864 z"
             sodipodi:nodetypes="ssscccsss" />
        </g>
        <g
           id="g57324"
           transform="matrix(0.2292057,0.0225678,-0.0225678,0.2292057,45.867914,32.622992)"
           style="fill:#fff500;fill-opacity:1">
          <path
             id="path57320"
             style="fill:#fff500;fill-opacity:1;stroke-width:0.520455;stroke-linejoin:round;stroke-dasharray:1.56137, 0.520455"
             d="m 52.441241,47.750674 -0.02542,-0.0027 c -0.215242,-0.02308 3.566328,-1.572224 3.566328,-1.355748 v 3.229177 c 0,0.216476 -0.174275,0.390752 -0.390752,0.390752 h -6.346172 c -0.216477,0 -0.390752,-0.174276 -0.390752,-0.390752 v -3.229177 c 0,-0.216476 3.802005,1.38155 3.586761,1.358473 z"
             sodipodi:nodetypes="sssssssss" />
          <path
             id="path57322"
             style="fill:#fff500;fill-opacity:1;stroke-width:0.534756;stroke-linejoin:round;stroke-dasharray:1.60426, 0.534756"
             d="m 49.102239,45.129793 h 6.632155 c 0.131221,0 0.236862,0.236863 0.236862,0.236863 l -9.3e-4,0.558536 c 0,0.131222 -3.551975,1.295797 -3.551975,1.295797 -0.131222,0 -3.552941,-1.164573 -3.552941,-1.295797 v -0.558537 c 0,-0.131222 0.105641,-0.236864 0.236862,-0.236864 z"
             sodipodi:nodetypes="ssscccsss" />
        </g>
      </g>
    </g>
  </g>
</svg>
